<svg width="82" height="82" viewBox="0 0 82 82" fill="none" xmlns="http://www.w3.org/2000/svg">
<path d="M41 79C61.9868 79 79 61.9868 79 41C79 20.0132 61.9868 3 41 3C20.0132 3 3 20.0132 3 41C3 61.9868 20.0132 79 41 79Z" fill="#D9293E" stroke="black" stroke-width="6"/>
<path d="M35.1764 39.0689L37.0116 49H44.3528L44.8116 45.6897C51.235 43.9557 60.8702 37.1774 55.3644 25.8274C50.0699 14.913 31.5058 18.7337 26 25.8274L31.9646 33.3939C42.0587 23.4628 55.3644 34.8127 35.1764 39.0689Z" fill="black"/>
<path d="M47 53H35V63H47V53Z" fill="black"/>
</svg>
