<svg width="82" height="82" viewBox="0 0 82 82" fill="none" xmlns="http://www.w3.org/2000/svg">
<path d="M41 79C61.9868 79 79 61.9868 79 41C79 20.0132 61.9868 3 41 3C20.0132 3 3 20.0132 3 41C3 61.9868 20.0132 79 41 79Z" fill="#8DB0F7" stroke="black" stroke-width="6"/>
<path d="M30.4816 38.3021H42.6409V43.5994H22V39.598L33.6995 24.32H22.3448V19H42.2731V22.8877L30.4816 38.3021Z" fill="black"/>
<path d="M54.6272 48.2464H64V52.3298H48.0893V49.2454L57.1077 37.4686H48.3551V33.3677H63.7165V36.3645L54.6272 48.2464Z" fill="black"/>
<path d="M36.1781 60.3513H42.2578V62.9999H31.9373V60.9992L37.7871 53.3602H32.1097V50.7002H42.0739V52.6441L36.1781 60.3513Z" fill="black"/>
</svg>
