<svg width="82" height="82" viewBox="0 0 82 82" fill="none" xmlns="http://www.w3.org/2000/svg">
<circle cx="41" cy="41" r="38" fill="#5FC068" stroke="black" stroke-width="6"/>
<path d="M24 47C25.863 58.9863 47.9397 68.9749 58 47" stroke="black" stroke-width="7" stroke-linecap="round" stroke-linejoin="round"/>
<path fill-rule="evenodd" clip-rule="evenodd" d="M28.5 38C32.6421 38 36 34.6421 36 30.5C36 29.1304 35.6329 27.8467 34.9918 26.7417C34.8677 28.562 33.3518 30 31.5 30C29.567 30 28 28.4331 28 26.5C28 24.9924 28.9532 23.7073 30.2897 23.2148C29.7162 23.0745 29.1168 23 28.5 23C24.3579 23 21 26.3579 21 30.5C21 34.6421 24.3579 38 28.5 38Z" fill="black"/>
<path fill-rule="evenodd" clip-rule="evenodd" d="M53.5 38C57.6421 38 61 34.6421 61 30.5C61 29.1304 60.6329 27.8467 59.9918 26.7417C59.8677 28.562 58.3518 30 56.5 30C54.567 30 53 28.4331 53 26.5C53 24.9924 53.9532 23.7073 55.2897 23.2148C54.7162 23.0745 54.1168 23 53.5 23C49.3579 23 46 26.3579 46 30.5C46 34.6421 49.3579 38 53.5 38Z" fill="black"/>
</svg>
